HIERARCHY
ROOT hip
{
OFFSET -0.55 94.97 0.71
CHANNELS 6 Xposition Yposition Zposition Zrotation Xrotation Yrotation
JOINT abdomen
{
OFFSET 0 7.23 0
CHANNELS 6 Xposition Yposition Zposition Zrotation Xrotation Yrotation
JOINT chest
{
OFFSET 0 16.54 0
CHANNELS 6 Xposition Yposition Zposition Zrotation Xrotation Yrotation
JOINT neck
{
OFFSET 0 34.21 0
CHANNELS 6 Xposition Yposition Zposition Zrotation Xrotation Yrotation
JOINT head
{
OFFSET 0 6.29 0
CHANNELS 6 Xposition Yposition Zposition Zrotation Xrotation Yrotation
End Site
{
OFFSET 0 21.21 0
}
}
}
JOINT lCollar
{
OFFSET 4.06 26.61 -1.12
CHANNELS 6 Xposition Yposition Zposition Zrotation Xrotation Yrotation
JOINT lShldr
{
OFFSET 14.17 0 0
CHANNELS 6 Xposition Yposition Zposition Zrotation Xrotation Yrotation
JOINT lForeArm
{
OFFSET 26.12 0 0
CHANNELS 6 Xposition Yposition Zposition Zrotation Xrotation Yrotation
JOINT lHand
{
OFFSET 27.71 0 0
CHANNELS 6 Xposition Yposition Zposition Zrotation Xrotation Yrotation
JOINT lThumb1
{
OFFSET 2.29 -0.46 1.83
CHANNELS 6 Xposition Yposition Zposition Zrotation Xrotation Yrotation
JOINT lThumb2
{
OFFSET 5.29 0 0
CHANNELS 6 Xposition Yposition Zposition Zrotation Xrotation Yrotation
JOINT lThumb3
{
OFFSET 3.01 0 0
CHANNELS 6 Xposition Yposition Zposition Zrotation Xrotation Yrotation
End Site
{
OFFSET 2.62 0 0
}
}
}
}
JOINT lIndex1
{
OFFSET 9.37 0.29 2.59
CHANNELS 6 Xposition Yposition Zposition Zrotation Xrotation Yrotation
JOINT lIndex2
{
OFFSET 4.34 0 0
CHANNELS 6 Xposition Yposition Zposition Zrotation Xrotation Yrotation
JOINT lIndex3
{
OFFSET 2.16 0 0
CHANNELS 6 Xposition Yposition Zposition Zrotation Xrotation Yrotation
End Site
{
OFFSET 2.20 0 0
}
}
}
}
JOINT lMid1
{
OFFSET 9.47 0.83 0.29
CHANNELS 6 Xposition Yposition Zposition Zrotation Xrotation Yrotation
JOINT lMid2
{
OFFSET 4.77 0 0
CHANNELS 6 Xposition Yposition Zposition Zrotation Xrotation Yrotation
JOINT lMid3
{
OFFSET 2.87 0 0
CHANNELS 6 Xposition Yposition Zposition Zrotation Xrotation Yrotation
End Site
{
OFFSET 2.09 0 0
}
}
}
}
JOINT lRing1
{
OFFSET 8.65 1.01 -1.70
CHANNELS 6 Xposition Yposition Zposition Zrotation Xrotation Yrotation
JOINT lRing2
{
OFFSET 4.54 0 0
CHANNELS 6 Xposition Yposition Zposition Zrotation Xrotation Yrotation
JOINT lRing3
{
OFFSET 2.50 0 0
CHANNELS 6 Xposition Yposition Zposition Zrotation Xrotation Yrotation
End Site
{
OFFSET 2.20 0 0
}
}
}
}
JOINT lPinky1
{
OFFSET 7.69 0.66 -3.90
CHANNELS 6 Xposition Yposition Zposition Zrotation Xrotation Yrotation
JOINT lPinky2
{
OFFSET 3.21 0 0
CHANNELS 6 Xposition Yposition Zposition Zrotation Xrotation Yrotation
JOINT lPinky3
{
OFFSET 1.92 0 0
CHANNELS 6 Xposition Yposition Zposition Zrotation Xrotation Yrotation
End Site
{
OFFSET 1.78 0 0
}
}
}
}
}
}
}
}
JOINT rCollar
{
OFFSET -4.06 26.61 -1.12
CHANNELS 6 Xposition Yposition Zposition Zrotation Xrotation Yrotation
JOINT rShldr
{
OFFSET -14.17 0 0
CHANNELS 6 Xposition Yposition Zposition Zrotation Xrotation Yrotation
JOINT rForeArm
{
OFFSET -26.12 0 0
CHANNELS 6 Xposition Yposition Zposition Zrotation Xrotation Yrotation
JOINT rHand
{
OFFSET -27.71 0 0
CHANNELS 6 Xposition Yposition Zposition Zrotation Xrotation Yrotation
JOINT rThumb1
{
OFFSET -2.29 -0.46 1.83
CHANNELS 6 Xposition Yposition Zposition Zrotation Xrotation Yrotation
JOINT rThumb2
{
OFFSET -5.29 0 0
CHANNELS 6 Xposition Yposition Zposition Zrotation Xrotation Yrotation
JOINT rThumb3
{
OFFSET -3.01 0 0
CHANNELS 6 Xposition Yposition Zposition Zrotation Xrotation Yrotation
End Site
{
OFFSET -2.62 0 0
}
}
}
}
JOINT rIndex1
{
OFFSET -9.37 0.29 2.59
CHANNELS 6 Xposition Yposition Zposition Zrotation Xrotation Yrotation
JOINT rIndex2
{
OFFSET -4.34 0 0
CHANNELS 6 Xposition Yposition Zposition Zrotation Xrotation Yrotation
JOINT rIndex3
{
OFFSET -2.16 0 0
CHANNELS 6 Xposition Yposition Zposition Zrotation Xrotation Yrotation
End Site
{
OFFSET -2.20 0 0
}
}
}
}
JOINT rMid1
{
OFFSET -9.47 0.83 0.29
CHANNELS 6 Xposition Yposition Zposition Zrotation Xrotation Yrotation
JOINT rMid2
{
OFFSET -4.77 0 0
CHANNELS 6 Xposition Yposition Zposition Zrotation Xrotation Yrotation
JOINT rMid3
{
OFFSET -2.87 0 0
CHANNELS 6 Xposition Yposition Zposition Zrotation Xrotation Yrotation
End Site
{
OFFSET -2.09 0 0
}
}
}
}
JOINT rRing1
{
OFFSET -8.65 1.01 -1.70
CHANNELS 6 Xposition Yposition Zposition Zrotation Xrotation Yrotation
JOINT rRing2
{
OFFSET -4.54 0 0
CHANNELS 6 Xposition Yposition Zposition Zrotation Xrotation Yrotation
JOINT rRing3
{
OFFSET -2.50 0 0
CHANNELS 6 Xposition Yposition Zposition Zrotation Xrotation Yrotation
End Site
{
OFFSET -2.20 0 0
}
}
}
}
JOINT rPinky1
{
OFFSET -7.69 0.66 -3.90
CHANNELS 6 Xposition Yposition Zposition Zrotation Xrotation Yrotation
JOINT rPinky2
{
OFFSET -3.21 0 0
CHANNELS 6 Xposition Yposition Zposition Zrotation Xrotation Yrotation
JOINT rPinky3
{
OFFSET -1.92 0 0
CHANNELS 6 Xposition Yposition Zposition Zrotation Xrotation Yrotation
End Site
{
OFFSET -1.78 0 0
}
}
}
}
}
}
}
}
}
}
JOINT lThigh
{
OFFSET 8.73 -0 0
CHANNELS 6 Xposition Yposition Zposition Zrotation Xrotation Yrotation
JOINT lShin
{
OFFSET 0 -46.66 0
CHANNELS 6 Xposition Yposition Zposition Zrotation Xrotation Yrotation
JOINT lFoot
{
OFFSET 0 -40.14 0
CHANNELS 6 Xposition Yposition Zposition Zrotation Xrotation Yrotation
JOINT lToes
{
OFFSET 0 -8.88 14.22
CHANNELS 6 Xposition Yposition Zposition Zrotation Xrotation Yrotation
End Site
{
OFFSET 0 0 6.29
}
}
}
}
}
JOINT rThigh
{
OFFSET -8.73 0 -0
CHANNELS 6 Xposition Yposition Zposition Zrotation Xrotation Yrotation
JOINT rShin
{
OFFSET 0 -46.66 0
CHANNELS 6 Xposition Yposition Zposition Zrotation Xrotation Yrotation
JOINT rFoot
{
OFFSET 0 -40.14 0
CHANNELS 6 Xposition Yposition Zposition Zrotation Xrotation Yrotation
JOINT rToes
{
OFFSET 0 -8.88 14.22
CHANNELS 6 Xposition Yposition Zposition Zrotation Xrotation Yrotation
End Site
{
OFFSET 0 0 6.29
}
}
}
}
}
}
MOTION
Frames: 7
Frame Time: 0.03
1.23 90.68 -7.63 -6.36 -8.89 -0.20 0 7.23 0 -2.76 7.67 0.81 0 16.54 0 -6.51 17.13 2.59 0 34.21 0 -7.21 37.15 3.97 0 6.29 0 -5.81 10.02 5.78 4.06 26.61 -1.12 -3.24 -3.94 0.41 14.17 0 0 -60.66 12.07 -17.78 26.12 0 0 -0.15 0.01 -10.55 27.71 0 0 4.59 -9.17 -4.66 2.29 -0.46 1.83 45.20 77.20 -60.43 5.29 0 0 -10.37 1.65 4.22 3.01 0 0 6.44 -0.09 8.45 9.37 0.29 2.59 -11.34 -1.21 1.31 4.34 0 0 -19.95 -0.50 4.43 2.16 0 0 -18.72 -0.66 3.60 9.47 0.83 0.29 -14.50 -4.18 2.33 4.77 0 0 -30.93 -2.19 8.23 2.87 0 0 -23.27 -1.18 7.77 8.65 1.01 -1.70 -19.01 2.25 3.60 4.54 0 0 -46.16 -2.76 6.46 2.50 0 0 -35.11 -1.56 6.20 7.69 0.66 -3.90 -20.06 -9.09 8.73 3.21 0 0 -55.80 -5.76 15.12 1.92 0 0 -45.44 -6.33 16.81 -4.06 26.61 -1.12 -7.54 -5.39 -1.60 -14.17 0 0 85.94 12.64 6.43 -26.12 0 0 0.17 0.01 11.65 -27.71 0 0 -2.36 16.60 11.77 -2.29 -0.46 1.83 -36.40 78.04 50.21 -5.29 0 0 7.43 1.88 -4.58 -3.01 0 0 -8.85 -0.10 -8.95 -9.37 0.29 2.59 16.20 -1.47 -9.38 -4.34 0 0 13.95 -0.10 -3.15 -2.16 0 0 14.80 -0.41 -2.78 -9.47 0.83 0.29 20.92 -4.48 -10.81 -4.77 0 0 22.70 -1.15 -6.20 -2.87 0 0 17.19 -1.29 -6.28 -8.65 1.01 -1.70 28.88 1.63 -12.50 -4.54 0 0 34.67 -1.60 -5.13 -2.50 0 0 26.21 -1.57 -5.15 -7.69 0.66 -3.90 31.56 -9.83 -14.05 -3.21 0 0 41.12 -5.29 -14.05 -1.92 0 0 35.34 -3.87 -13.95 8.73 -0 0 12.02 -16.22 22.43 0 -46.66 0 12.57 47.30 1.82 0 -40.14 0 -7.79 -21.20 12.54 0 -8.88 14.22 0 0 0 -8.73 0 -0 -2.63 -17.17 -15.95 0 -46.66 0 -4.33 35.33 -7.24 0 -40.14 0 5.89 -6.71 -19.10 0 -8.88 14.22 0 0 0 
1.36 90.74 -7.45 -6.34 -9.60 0.44 0 7.23 0 -2.68 7.54 0.94 0 16.54 0 -6.35 16.86 2.82 0 34.21 0 -7.14 37.24 3.74 0 6.29 0 -6.56 9.75 5.14 4.06 26.61 -1.12 -3.12 -4.00 1.20 14.17 0 0 -62.79 13.89 -20.16 26.12 0 0 -0.05 0 -3.68 27.71 0 0 9.73 -10.04 -0.78 2.29 -0.46 1.83 44.88 77.30 -60.14 5.29 0 0 -10.37 1.65 4.22 3.01 0 0 6.78 -0.05 8.45 9.37 0.29 2.59 -10.47 -1.19 1.91 4.34 0 0 -19.97 -0.50 4.44 2.16 0 0 -18.44 -0.64 3.54 9.47 0.83 0.29 -13.46 -4.13 2.55 4.77 0 0 -31.71 -2.30 8.42 2.87 0 0 -23.66 -1.22 7.87 8.65 1.01 -1.70 -17.77 2.33 3.33 4.54 0 0 -47.93 -2.96 6.65 2.50 0 0 -36.35 -1.68 6.36 7.69 0.66 -3.90 -18.76 -9.01 8.06 3.21 0 0 -58.16 -6.41 15.77 1.92 0 0 -47.21 -6.81 17.28 -4.06 26.61 -1.12 -7.84 -5.38 -1.79 -14.17 0 0 87.21 13.90 6.91 -26.12 0 0 0.16 0.01 10.79 -27.71 0 0 2.47 21.16 11.16 -2.29 -0.46 1.83 -36.75 77.96 50.63 -5.29 0 0 7.43 1.88 -4.58 -3.01 0 0 -8.63 -0.13 -8.95 -9.37 0.29 2.59 16.86 -1.51 -9.77 -4.34 0 0 13.95 -0.10 -3.15 -2.16 0 0 14.75 -0.41 -2.77 -9.47 0.83 0.29 21.51 -4.51 -11.05 -4.77 0 0 22.70 -1.15 -6.20 -2.87 0 0 17.13 -1.24 -6.26 -8.65 1.01 -1.70 29.40 1.58 -12.56 -4.54 0 0 34.68 -1.60 -5.13 -2.50 0 0 26.13 -1.50 -5.13 -7.69 0.66 -3.90 32.02 -9.89 -13.97 -3.21 0 0 41.12 -5.29 -14.05 -1.92 0 0 35.24 -3.85 -13.92 8.73 -0 0 11.93 -15.51 22.34 0 -46.66 0 12.55 47.19 1.94 0 -40.14 0 -7.71 -21.23 11.83 0 -8.88 14.22 0 0 -0 -8.73 0 -0 -2.94 -16.16 -16.37 0 -46.66 0 -4.08 35.21 -7.38 0 -40.14 0 5.97 -6.80 -19.22 0 -8.88 14.22 0 0 0 
1.48 90.96 -7.16 -6.24 -10.12 1.18 0 7.23 0 -2.64 7.26 0.95 0 16.54 0 -6.25 16.29 2.82 0 34.21 0 -7.07 37.18 3.53 0 6.29 0 -7.81 8.72 4.91 4.06 26.61 -1.12 -3.05 -4.05 1.79 14.17 0 0 -64.30 15.82 -19.80 26.12 0 0 -0.01 0 -1.29 27.71 0 0 10.46 -10.26 3.72 2.29 -0.46 1.83 44.84 77.31 -60.21 5.29 0 0 -10.37 1.65 4.22 3.01 0 0 7.01 -0.03 8.45 9.37 0.29 2.59 -10.74 -1.23 2.68 4.34 0 0 -19.98 -0.50 4.44 2.16 0 0 -18.22 -0.62 3.49 9.47 0.83 0.29 -13.34 -4.15 3.09 4.77 0 0 -32.43 -2.41 8.59 2.87 0 0 -23.87 -1.25 7.93 8.65 1.01 -1.70 -17.23 2.34 3.60 4.54 0 0 -49.60 -3.16 6.83 2.50 0 0 -37.13 -1.75 6.46 7.69 0.66 -3.90 -17.83 -8.96 8.11 3.21 0 0 -60.40 -7.05 16.35 1.92 0 0 -48.33 -7.13 17.57 -4.06 26.61 -1.12 -8.08 -5.32 -2.19 -14.17 0 0 88.21 15.03 6.54 -26.12 0 0 0.16 0.01 11.05 -27.71 0 0 6.17 23.67 9.90 -2.29 -0.46 1.83 -37.33 77.81 51.30 -5.29 0 0 7.43 1.88 -4.57 -3.01 0 0 -8.56 -0.14 -8.95 -9.37 0.29 2.59 17.75 -1.55 -10.03 -4.34 0 0 13.95 -0.10 -3.15 -2.16 0 0 14.60 -0.40 -2.74 -9.47 0.83 0.29 22.17 -4.55 -11.26 -4.77 0 0 22.71 -1.15 -6.20 -2.87 0 0 16.98 -1.20 -6.21 -8.65 1.01 -1.70 29.80 1.55 -12.69 -4.54 0 0 34.68 -1.60 -5.13 -2.50 0 0 25.99 -1.46 -5.10 -7.69 0.66 -3.90 32.17 -9.90 -14.05 -3.21 0 0 41.12 -5.29 -14.05 -1.92 0 0 35.11 -3.83 -13.88 8.73 -0 0 11.80 -14.66 22.32 0 -46.66 0 12.26 46.56 2.27 0 -40.14 0 -7.56 -21.06 10.99 0 -8.88 14.22 0 0 0 -8.73 0 -0 -3.17 -14.98 -16.62 0 -46.66 0 -3.78 34.49 -7.64 0 -40.14 0 6.06 -6.68 -19.51 0 -8.88 14.22 0 0 -0 
1.60 91.29 -6.77 -6.17 -10.52 1.76 0 7.23 0 -2.63 6.86 0.88 0 16.54 0 -6.23 15.51 2.67 0 34.21 0 -7.10 36.96 3.46 0 6.29 0 -9.07 7.17 5.11 4.06 26.61 -1.12 -3.06 -4.09 2.10 14.17 0 0 -65.23 18.01 -17.13 26.12 0 0 -0.03 0 -2.05 27.71 0 0 5.06 -8.81 6.16 2.29 -0.46 1.83 45.05 77.23 -60.54 5.29 0 0 -10.37 1.65 4.22 3.01 0 0 7.02 -0.03 8.45 9.37 0.29 2.59 -12.04 -1.33 3.34 4.34 0 0 -19.95 -0.50 4.43 2.16 0 0 -18.19 -0.62 3.49 9.47 0.83 0.29 -14.14 -4.23 3.76 4.77 0 0 -32.87 -2.48 8.70 2.87 0 0 -23.82 -1.24 7.92 8.65 1.01 -1.70 -17.53 2.30 4.26 4.54 0 0 -50.65 -3.28 6.93 2.50 0 0 -37.05 -1.74 6.45 7.69 0.66 -3.90 -17.54 -8.93 8.78 3.21 0 0 -61.81 -7.47 16.71 1.92 0 0 -48.23 -7.10 17.54 -4.06 26.61 -1.12 -8.15 -5.28 -2.45 -14.17 0 0 88.74 16.27 5.42 -26.12 0 0 0.17 0.01 11.96 -27.71 0 0 7.22 23.77 8.98 -2.29 -0.46 1.83 -37.77 77.70 51.81 -5.29 0 0 7.43 1.88 -4.57 -3.01 0 0 -8.68 -0.12 -8.95 -9.37 0.29 2.59 18.68 -1.58 -10.14 -4.34 0 0 13.95 -0.10 -3.15 -2.16 0 0 14.37 -0.39 -2.69 -9.47 0.83 0.29 22.76 -4.57 -11.38 -4.77 0 0 22.71 -1.15 -6.20 -2.87 0 0 16.80 -1.16 -6.16 -8.65 1.01 -1.70 30 1.54 -12.84 -4.54 0 0 34.68 -1.60 -5.13 -2.50 0 0 25.85 -1.43 -5.08 -7.69 0.66 -3.90 32.01 -9.88 -14.22 -3.21 0 0 41.12 -5.29 -14.05 -1.92 0 0 35.02 -3.81 -13.85 8.73 -0 0 11.68 -13.64 22.38 0 -46.66 0 11.84 45.60 2.65 0 -40.14 0 -7.39 -20.79 10.29 0 -8.88 14.22 0 0 0 -8.73 0 -0 -3.15 -13.67 -16.56 0 -46.66 0 -3.61 33.29 -7.92 0 -40.14 0 6.22 -6.34 -19.90 0 -8.88 14.22 0 0 0 
1.72 91.64 -6.31 -6.16 -10.88 2.03 0 7.23 0 -2.64 6.41 0.80 0 16.54 0 -6.25 14.60 2.49 0 34.21 0 -7.26 36.65 3.51 0 6.29 0 -10.04 5.68 5.55 4.06 26.61 -1.12 -3.08 -4.11 2.32 14.17 0 0 -65.80 20.94 -13.36 26.12 0 0 -0.05 0 -3.94 27.71 0 0 -3.70 -5.99 5.19 2.29 -0.46 1.83 45.38 77.12 -60.90 5.29 0 0 -10.37 1.65 4.22 3.01 0 0 6.78 -0.05 8.45 9.37 0.29 2.59 -13.58 -1.43 3.65 4.34 0 0 -19.88 -0.49 4.42 2.16 0 0 -18.40 -0.64 3.53 9.47 0.83 0.29 -15.33 -4.33 4.28 4.77 0 0 -32.87 -2.48 8.70 2.87 0 0 -23.49 -1.21 7.83 8.65 1.01 -1.70 -18.40 2.23 5.07 4.54 0 0 -50.74 -3.29 6.94 2.50 0 0 -36.01 -1.65 6.32 7.69 0.66 -3.90 -17.90 -8.91 9.83 3.21 0 0 -61.96 -7.51 16.75 1.92 0 0 -46.75 -6.69 17.16 -4.06 26.61 -1.12 -8.07 -5.30 -2.29 -14.17 0 0 88.82 17.57 3.85 -26.12 0 0 0.19 0.02 12.92 -27.71 0 0 6.62 22.85 8.77 -2.29 -0.46 1.83 -37.86 77.68 51.94 -5.29 0 0 7.42 1.88 -4.57 -3.01 0 0 -8.90 -0.10 -8.95 -9.37 0.29 2.59 19.49 -1.61 -10.07 -4.34 0 0 13.95 -0.10 -3.15 -2.16 0 0 14.14 -0.37 -2.64 -9.47 0.83 0.29 23.21 -4.60 -11.37 -4.77 0 0 22.71 -1.15 -6.20 -2.87 0 0 16.63 -1.14 -6.12 -8.65 1.01 -1.70 30.01 1.55 -12.91 -4.54 0 0 34.68 -1.60 -5.13 -2.50 0 0 25.76 -1.44 -5.06 -7.69 0.66 -3.90 31.64 -9.83 -14.36 -3.21 0 0 41.12 -5.29 -14.05 -1.92 0 0 34.99 -3.80 -13.85 8.73 -0 0 11.62 -12.52 22.50 0 -46.66 0 11.40 44.54 3.01 0 -40.14 0 -7.27 -20.54 9.83 0 -8.88 14.22 0 0 0 -8.73 0 -0 -2.87 -12.34 -16.19 0 -46.66 0 -3.63 31.89 -8.14 0 -40.14 0 6.44 -5.91 -20.28 0 -8.88 14.22 0 0 0 
1.81 91.96 -5.83 -6.20 -11.21 1.97 0 7.23 0 -2.65 5.95 0.76 0 16.54 0 -6.26 13.68 2.40 0 34.21 0 -7.51 36.30 3.64 0 6.29 0 -10.74 4.77 5.99 4.06 26.61 -1.12 -3.08 -4.13 2.80 14.17 0 0 -66.31 24.65 -8.99 26.12 0 0 -0.10 0 -7.05 27.71 0 0 -10.87 -2.99 2.05 2.29 -0.46 1.83 45.72 76.96 -61.12 5.29 0 0 -10.37 1.65 4.22 3.01 0 0 6.39 -0.10 8.45 9.37 0.29 2.59 -14.39 -1.47 3.41 4.34 0 0 -19.80 -0.49 4.40 2.16 0 0 -18.77 -0.66 3.61 9.47 0.83 0.29 -16.15 -4.39 4.47 4.77 0 0 -32.43 -2.41 8.59 2.87 0 0 -22.93 -1.14 7.69 8.65 1.01 -1.70 -19.30 2.17 5.79 4.54 0 0 -49.81 -3.18 6.85 2.50 0 0 -34.23 -1.49 6.09 7.69 0.66 -3.90 -18.63 -8.88 11.00 3.21 0 0 -60.76 -7.16 16.45 1.92 0 0 -44.23 -6.00 16.48 -4.06 26.61 -1.12 -7.95 -5.37 -1.82 -14.17 0 0 88.67 18.70 2.21 -26.12 0 0 0.20 0.02 13.73 -27.71 0 0 6.33 22.07 8.84 -2.29 -0.46 1.83 -37.58 77.76 51.69 -5.29 0 0 7.42 1.88 -4.57 -3.01 0 0 -9.10 -0.07 -8.95 -9.37 0.29 2.59 20.16 -1.65 -9.83 -4.34 0 0 13.95 -0.10 -3.15 -2.16 0 0 13.96 -0.36 -2.60 -9.47 0.83 0.29 23.55 -4.62 -11.22 -4.77 0 0 22.70 -1.15 -6.20 -2.87 0 0 16.52 -1.14 -6.09 -8.65 1.01 -1.70 29.91 1.56 -12.87 -4.54 0 0 34.67 -1.60 -5.13 -2.50 0 0 25.72 -1.46 -5.06 -7.69 0.66 -3.90 31.21 -9.78 -14.41 -3.21 0 0 41.12 -5.29 -14.05 -1.92 0 0 35.02 -3.81 -13.85 8.73 -0 0 11.60 -11.36 22.63 0 -46.66 0 10.98 43.59 3.57 0 -40.14 0 -7.30 -20.34 9.40 0 -8.88 14.22 0 0 0 -8.73 0 -0 -2.48 -11.13 -15.70 0 -46.66 0 -3.83 30.60 -8.27 0 -40.14 0 6.68 -5.51 -20.49 0 -8.88 14.22 -0 0 0 
1.87 92.19 -5.34 -6.25 -11.51 1.59 0 7.23 0 -2.63 5.52 0.80 0 16.54 0 -6.23 12.83 2.46 0 34.21 0 -7.89 35.93 3.82 0 6.29 0 -11.25 4.63 6.31 4.06 26.61 -1.12 -3.11 -4.17 3.77 14.17 0 0 -67.09 28.66 -3.89 26.12 0 0 -0.19 0.02 -12.82 27.71 0 0 -13.80 -0.92 -0.44 2.29 -0.46 1.83 46.09 76.74 -61.19 5.29 0 0 -10.37 1.65 4.22 3.01 0 0 6.00 -0.14 8.46 9.37 0.29 2.59 -13.81 -1.38 2.60 4.34 0 0 -19.83 -0.49 4.41 2.16 0 0 -19.19 -0.69 3.70 9.47 0.83 0.29 -16.00 -4.38 4.25 4.77 0 0 -31.71 -2.30 8.42 2.87 0 0 -22.27 -1.07 7.52 8.65 1.01 -1.70 -19.70 2.14 6.29 4.54 0 0 -48.14 -2.98 6.68 2.50 0 0 -32.16 -1.31 5.82 7.69 0.66 -3.90 -19.29 -8.85 12.08 3.21 0 0 -58.52 -6.51 15.86 1.92 0 0 -41.28 -5.25 15.66 -4.06 26.61 -1.12 -7.94 -5.46 -1.34 -14.17 0 0 88.57 19.46 0.83 -26.12 0 0 0.21 0.02 14.29 -27.71 0 0 6.72 21.43 8.87 -2.29 -0.46 1.83 -37.08 77.92 51.26 -5.29 0 0 7.43 1.88 -4.57 -3.01 0 0 -9.17 -0.06 -8.95 -9.37 0.29 2.59 20.67 -1.69 -9.50 -4.34 0 0 13.95 -0.10 -3.15 -2.16 0 0 13.89 -0.36 -2.58 -9.47 0.83 0.29 23.79 -4.65 -10.97 -4.77 0 0 22.70 -1.15 -6.20 -2.87 0 0 16.48 -1.16 -6.08 -8.65 1.01 -1.70 29.79 1.56 -12.73 -4.54 0 0 34.67 -1.60 -5.13 -2.50 0 0 25.73 -1.49 -5.07 -7.69 0.66 -3.90 30.82 -9.74 -14.36 -3.21 0 0 41.12 -5.29 -14.05 -1.92 0 0 35.07 -3.82 -13.87 8.73 -0 0 11.58 -10.25 22.76 0 -46.66 0 10.66 42.86 4.05 0 -40.14 0 -7.44 -20.27 9.25 0 -8.88 14.22 0 0 0 -8.73 0 -0 -2.13 -10.15 -15.27 0 -46.66 0 -4.09 29.65 -8.31 0 -40.14 0 6.89 -5.25 -20.40 0 -8.88 14.22 0 0 0 
